<?xml version="1.0" standalone="no"?><!DOCTYPE svg PUBLIC "-//W3C//DTD SVG 1.1//EN" "http://www.w3.org/Graphics/SVG/1.1/DTD/svg11.dtd"><svg t="1700646609744" class="icon" viewBox="0 0 1024 1024" version="1.1" xmlns="http://www.w3.org/2000/svg" p-id="1021" xmlns:xlink="http://www.w3.org/1999/xlink" width="32" height="32"><path d="M512.8704 513.6384m-458.9056 0a458.9056 458.9056 0 1 0 917.8112 0 458.9056 458.9056 0 1 0-917.8112 0Z" fill="#FDA3EE" p-id="1022"></path><path d="M646.2976 265.0624A459.1616 459.1616 0 0 0 206.4384 855.04a459.008 459.008 0 0 0 746.24-472.6784 456.96 456.96 0 0 0-306.3808-117.2992z" fill="#D469C8" p-id="1023"></path><path d="M556.4416 381.44h241.3056l-74.1888-103.0144a51.5072 51.5072 0 0 0-41.8304-21.4528h-125.2864zM515.1232 381.44V256.9728H389.8368A51.5072 51.5072 0 0 0 348.16 278.4256L273.8176 381.44zM263.9872 422.7584v286.3616a69.5296 69.5296 0 0 0 69.5296 69.5296h404.48a69.5296 69.5296 0 0 0 69.5296-69.5296V422.7584z m358.4 115.6096H449.4848a20.48 20.48 0 1 1 0-41.3184h172.6464a20.48 20.48 0 0 1 0 41.3184z" fill="#A845A1" p-id="1024"></path><path d="M537.6 355.7888h229.4784l-70.5024-97.9456a49.152 49.152 0 0 0-39.8336-20.48H537.6zM498.3296 355.7888V237.4144H379.1872a49.152 49.152 0 0 0-39.8336 20.48L268.8512 355.7888zM259.4816 395.1104v272.3328a66.1504 66.1504 0 0 0 66.0992 66.1504h384.768a66.1504 66.1504 0 0 0 66.0992-66.1504V395.1104z m340.5824 109.9264H435.8656a19.6608 19.6608 0 1 1 0-39.3216h164.1984a19.6608 19.6608 0 0 1 0 39.3216z" fill="#FFFFFF" p-id="1025"></path><path d="M512 656.5888a151.5008 151.5008 0 0 0-252.5184-112.9472v123.8016a66.1504 66.1504 0 0 0 66.0992 66.1504h165.376a150.6816 150.6816 0 0 0 21.0432-77.0048z" fill="#FFD2FA" p-id="1026"></path></svg>