<?xml version="1.0" standalone="no"?><!DOCTYPE svg PUBLIC "-//W3C//DTD SVG 1.1//EN" "http://www.w3.org/Graphics/SVG/1.1/DTD/svg11.dtd"><svg t="1700646628386" class="icon" viewBox="0 0 1024 1024" version="1.1" xmlns="http://www.w3.org/2000/svg" p-id="1170" xmlns:xlink="http://www.w3.org/1999/xlink" width="32" height="32"><path d="M513.28 513.6384m-458.9056 0a458.9056 458.9056 0 1 0 917.8112 0 458.9056 458.9056 0 1 0-917.8112 0Z" fill="#72F1DC" p-id="1171"></path><path d="M646.7072 265.0624A459.1616 459.1616 0 0 0 206.8992 855.04a459.008 459.008 0 0 0 746.1888-472.6784 456.96 456.96 0 0 0-306.3808-117.2992z" fill="#29E2CC" p-id="1172"></path><path d="M784.7936 309.8112A73.4208 73.4208 0 0 0 711.68 237.4144H353.28a73.472 73.472 0 0 0-73.216 72.3968l-8.0384 403.2a73.4208 73.4208 0 0 0 73.0624 75.1104h374.6816a73.472 73.472 0 0 0 73.1136-75.1104z m-254.1568 175.6672a123.4944 123.4944 0 0 1-122.88-123.8528 21.5552 21.5552 0 1 1 43.1104 0 79.7184 79.7184 0 1 0 159.3856 0 21.5552 21.5552 0 1 1 43.1104 0 123.4432 123.4432 0 0 1-122.7264 123.8528z" fill="#00B2A5" p-id="1173"></path><path d="M749.824 296.0896a68.1472 68.1472 0 0 0-68.1472-66.8672H347.648a68.1984 68.1984 0 0 0-68.1472 66.8672l-7.4752 372.48a68.096 68.096 0 0 0 68.096 69.376h349.0816a68.1472 68.1472 0 0 0 68.1472-69.376z m-236.8512 162.304a114.5344 114.5344 0 0 1-114.432-114.432 20.0704 20.0704 0 1 1 40.1408 0 74.2912 74.2912 0 1 0 148.48 0 20.1216 20.1216 0 0 1 40.192 0 114.5856 114.5856 0 0 1-114.3808 114.432z" fill="#FFFFFF" p-id="1174"></path><path d="M536.4224 636.4672a160.7168 160.7168 0 0 0-261.12-125.4912l-3.1744 157.5936a68.096 68.096 0 0 0 68.096 69.376h160.1024a160.256 160.256 0 0 0 36.096-101.4784z" fill="#AEFFEF" p-id="1175"></path></svg>