<?xml version="1.0" encoding="UTF-8"?>
<svg width="20px" height="20px" viewBox="0 0 20 20" version="1.1" xmlns="http://www.w3.org/2000/svg" xmlns:xlink="http://www.w3.org/1999/xlink">
    <defs>
        <linearGradient x1="19.3025612%" y1="18.7750147%" x2="100%" y2="100%" id="linearGradient-1">
            <stop stop-color="#104DF0" offset="0%"></stop>
            <stop stop-color="#2F80F5" offset="34.668841%"></stop>
            <stop stop-color="#08C1FC" offset="100%"></stop>
        </linearGradient>
    </defs>
    <g id="页面-1" stroke="none" stroke-width="1" fill="none" fill-rule="evenodd">
        <g id="其他" transform="translate(-123.000000, -179.000000)">
            <g id="手风琴菜单" transform="translate(99.000000, 150.000000)">
                <g id="编组-33" transform="translate(12.000000, 16.000000)">
                    <g id="多素材" transform="translate(12.000000, 13.000000)">
                        <rect id="矩形" fill="#000000" fill-rule="nonzero" opacity="0" x="0" y="0" width="20" height="20"></rect>
                        <g id="编组-15" transform="translate(3.000000, 4.000000)">
                            <path d="M3.96885649,2.64590433 C4.33521247,2.64590433 4.64729349,2.77480736 4.90509956,3.03261342 C5.16290562,3.29041948 5.29180865,3.6025005 5.29180865,3.96885649 C5.29180865,4.32164373 5.16290562,4.63033257 4.90509956,4.894923 C4.64729349,5.15951343 4.33521247,5.29180865 3.96885649,5.29180865 C3.6025005,5.29180865 3.29041948,5.15951343 3.03261342,4.894923 C2.77480736,4.63033257 2.64590433,4.32164373 2.64590433,3.96885649 C2.64590433,3.6025005 2.77480736,3.29041948 3.03261342,3.03261342 C3.29041948,2.77480736 3.6025005,2.64590433 3.96885649,2.64590433 Z M10.9792665,0 C11.4738281,0 11.8255163,0.134810633 12.0343312,0.4044319 C12.2431461,0.674053167 12.3475535,1.03446527 12.3475535,1.4856682 L12.3475535,11.2085412 C12.3475535,11.483665 12.2321558,11.7422813 12.0013604,11.9843902 C11.770565,12.2264991 11.4793232,12.3475535 11.127635,12.3475535 L1.13749158,12.3475535 C0.840754645,12.3475535 0.576988482,12.2264991 0.346193089,11.9843902 C0.115397696,11.7422813 0,11.4506501 0,11.1094967 L0,1.20504199 C0,0.852883599 0.096164747,0.56400367 0.288494241,0.338402202 C0.480823735,0.112800734 0.736347206,0 1.05506465,0 L10.9792665,0 Z" id="形状" fill="url(#linearGradient-1)"></path>
                            <path d="M2.9837978,11.0651201 C4.01746879,8.94069331 5.25563619,8.30597597 6.69830002,9.16096803 C8.14096384,10.0159601 9.18566995,9.66987101 9.83241835,8.12270077 C11.6832163,5.45636166 13.3872688,6.43716809 14.944576,11.0651201 C14.9480685,11.0723863 10.9611424,11.0723863 2.9837978,11.0651201 Z" id="路径-4" fill="#0033FF"></path>
                            <path d="M14.944576,11.0651201 C14.944703,11.0653843 14.9395534,11.0656389 14.9291272,11.0658839 L14.882019,11.0665901 C14.8715293,11.066703 14.8597205,11.0668135 14.8465925,11.0669216 L14.7519949,11.0675413 C14.7335904,11.0676398 14.7138667,11.0677359 14.6928238,11.0678296 L14.4678213,11.0686078 C14.4388635,11.0686871 14.4085867,11.068764 14.3769906,11.0688384 L13.9345194,11.0696167 C13.8923702,11.069672 13.8489018,11.0697248 13.8041144,11.0697752 L12.7277629,11.0704652 L12.7277629,11.0704652 L12.3487074,6.78187279 C13.2550994,7.18808006 14.1203889,8.61582915 14.944576,11.0651201 Z" id="形状结合" fill="#0FE4CE"></path>
                        </g>
                    </g>
                </g>
            </g>
        </g>
    </g>
</svg>