<?xml version="1.0" standalone="no"?><!DOCTYPE svg PUBLIC "-//W3C//DTD SVG 1.1//EN" "http://www.w3.org/Graphics/SVG/1.1/DTD/svg11.dtd"><svg t="1700646644887" class="icon" viewBox="0 0 1024 1024" version="1.1" xmlns="http://www.w3.org/2000/svg" p-id="1319" xmlns:xlink="http://www.w3.org/1999/xlink" width="32" height="32"><path d="M511.5904 513.8944m-458.9056 0a458.9056 458.9056 0 1 0 917.8112 0 458.9056 458.9056 0 1 0-917.8112 0Z" fill="#9AB2F4" p-id="1320"></path><path d="M645.12 265.3184a459.1616 459.1616 0 0 0-439.808 590.1824 459.008 459.008 0 0 0 746.0864-472.9344A457.1648 457.1648 0 0 0 645.12 265.3184z" fill="#6882E0" p-id="1321"></path><path d="M827.5968 488.4992L769.28 430.08V347.8016a59.5968 59.5968 0 0 0-59.5968-59.648h-82.432L568.9856 229.888a59.5968 59.5968 0 0 0-84.3264 0L426.3936 288.1536h-82.432a59.648 59.648 0 0 0-59.648 59.648V430.08L226.048 488.4992a59.5968 59.5968 0 0 0 0 84.3264l58.2656 58.2656v82.432A59.648 59.648 0 0 0 343.9616 773.12h82.432l58.2656 58.2656a59.5968 59.5968 0 0 0 84.3264 0L627.2512 773.12h82.432a59.5968 59.5968 0 0 0 59.5968-59.5968v-82.432l58.3168-58.2656a59.6992 59.6992 0 0 0 0-84.3264z m-161.1776-20.48l-161.1264 157.5936a22.5792 22.5792 0 0 1-15.7184 6.4h-1.024a22.6304 22.6304 0 0 1-16.128-7.936L385.792 522.24a22.528 22.528 0 0 1 34.304-29.1328l71.0144 83.6608L634.88 435.6608a22.4768 22.4768 0 0 1 31.488 32.1536z" fill="#4057A6" p-id="1322"></path><path d="M793.088 465.92l-54.528-54.784V334.0288a55.8592 55.8592 0 0 0-55.808-55.8592h-77.1584l-54.528-54.528a55.808 55.808 0 0 0-78.9504 0L417.536 278.1696H340.4288a55.8592 55.8592 0 0 0-55.808 55.8592V411.136L230.0416 465.92a55.7568 55.7568 0 0 0 0 78.8992L284.6208 599.04v77.312a55.808 55.808 0 0 0 55.808 55.808h77.1072l54.5792 54.528a55.808 55.808 0 0 0 78.9504 0L605.5936 732.16h77.1584a55.808 55.808 0 0 0 55.808-55.808V599.04l54.528-54.5792a55.7568 55.7568 0 0 0 0-78.5408z m-150.8352-19.3536L491.52 593.92a21.0944 21.0944 0 0 1-14.6944 5.9904h-0.9728a21.2992 21.2992 0 0 1-15.36-7.424l-80.896-95.3856a21.0432 21.0432 0 0 1 32.1024-27.2384l66.56 78.2848 134.656-131.8912a21.0432 21.0432 0 0 1 29.44 30.1056z" fill="#FFFFFF" p-id="1323"></path><path d="M476.7232 600.064h-0.9728a21.2992 21.2992 0 0 1-15.36-7.424L379.5968 497.1008a21.0432 21.0432 0 0 1 32.1024-27.2384l66.56 78.2848 47.8208-46.848A176.4352 176.4352 0 0 0 240.64 555.1616l44.032 44.032v77.1584A55.808 55.808 0 0 0 340.4288 732.16h77.1072l54.5792 54.528 1.3312 1.1776a176.384 176.384 0 0 0 78.848-253.44L491.52 593.92a21.0944 21.0944 0 0 1-14.7968 6.144z" fill="#CCDCFF" p-id="1324"></path></svg>